<?xml version="1.0" encoding="UTF-8" standalone="no"?>
<svg
   xmlns:dc="http://purl.org/dc/elements/1.1/"
   xmlns:cc="http://creativecommons.org/ns#"
   xmlns:rdf="http://www.w3.org/1999/02/22-rdf-syntax-ns#"
   xmlns:svg="http://www.w3.org/2000/svg"
   xmlns="http://www.w3.org/2000/svg"
   xmlns:sodipodi="http://sodipodi.sourceforge.net/DTD/sodipodi-0.dtd"
   xmlns:inkscape="http://www.inkscape.org/namespaces/inkscape"
   version="1.2"
   id="svg2"
   x="0px"
   y="0px"
   width="120.949px"
   height="85.883px"
   viewBox="0 0 120.949 85.883"
   xml:space="preserve"
   
   ><metadata
   id="metadata93"><rdf:RDF><cc:Work
       rdf:about=""><dc:format>image/svg+xml</dc:format><dc:type
         rdf:resource="http://purl.org/dc/dcmitype/StillImage" /></cc:Work></rdf:RDF></metadata><defs
   id="defs91">








	
	
	
	
		
	
	
	
</defs><sodipodi:namedview
   pagecolor="#ffffff"
   bordercolor="#666666"
   borderopacity="1"
   objecttolerance="10"
   gridtolerance="10"
   guidetolerance="10"
   
   
   
   
   id="namedview89"
   showgrid="false"
   
   
   
   
   
   
    />
<rect
   height="0.208"
   width="0.208"
   y="84.795998"
   x="11.695"
   id="connector0terminal" /><rect
   height="19.75"
   width="1.375"
   y="65.499001"
   x="11.076"
   id="connector0pin" /><rect
   height="0.208"
   width="0.208"
   y="0.89499998"
   x="54.460999"
   id="connector1terminal" /><rect
   height="19.75"
   width="1.375"
   y="0.79100001"
   x="53.855999"
   id="connector1pin" /><rect
   height="0.208"
   width="0.208"
   y="84.795998"
   x="54.478001"
   id="connector2terminal" /><rect
   height="19.75"
   width="1.375"
   y="65.499001"
   x="53.856998"
   id="connector2pin" /><rect
   height="0.208"
   width="0.20900001"
   y="84.795998"
   x="97.258003"
   id="connector3terminal" /><rect
   height="19.75"
   width="1.375"
   y="65.499001"
   x="96.640999"
   id="connector3pin" /><g
   id="g_x5F_b">
		<g
   id="g13">
			<path
   
   id="path15"
   d="m 107.875,33.29 c 0.359,0 0.689,0.193 0.869,0.509 l 0,0 c 0.178,0.312 0.174,0.695 -0.012,1.005 l 0,0 -10.525,17.639 c -0.18,0.302 -0.506,0.488 -0.857,0.488 l 0,0 c -0.35,0 -0.68,-0.186 -0.857,-0.486 l 0,0 -10.554,-17.639 c -0.186,-0.312 -0.188,-0.694 -0.014,-1.007 l 0,0 c 0.18,-0.315 0.51,-0.509 0.871,-0.509 l 0,0 h 21.079 M 97.346,49.98 106.112,35.291 H 88.559 l 8.787,14.689 0,0 z" />
			<path
   
   id="path17"
   d="m 86.564,52.93 c -0.553,0 -1,-0.445 -1,-0.998 l 0,0 c 0,-0.554 0.447,-1 1,-1 l 0,0 h 21.053 c 0.551,0 1,0.446 1,1 l 0,0 c 0,0.553 -0.449,0.998 -1,0.998 l 0,0 H 86.564 l 0,0 z" />
			<path
   
   id="path19"
   d="M 96.348,34.051 V 22.033 c 0,-0.553 0.445,-0.999 1,-0.999 l 0,0 c 0.555,0 1,0.446 1,0.999 l 0,0 v 12.018 c 0,0.553 -0.445,1.001 -1,1.001 l 0,0 c -0.555,0 -1,-0.449 -1,-1.001 l 0,0 z" />
			<path
   
   id="path21"
   d="M 96.348,84.885 V 51.833 c 0,-0.554 0.447,-1.001 1,-1.001 l 0,0 c 0.553,0 1,0.447 1,1.001 l 0,0 v 33.052 c 0,0.551 -0.447,0.998 -1,0.998 l 0,0 c -0.553,0 -1,-0.447 -1,-0.998 l 0,0 z" />
			<polygon
   id="polygon23"
   points="114.088,56.934 115.555,55.764 117.021,54.595 119.002,60.087 " />
			<path
   
   id="path25"
   d="m 112.375,57.02 2.559,-2.037 1.465,-1.17 1.09,-0.871 3.461,9.58 -8.575,-5.502 0,0 z" />
			<path
   
   id="path27"
   d="m 117.65,59.995 -9.404,-11.786 c -0.346,-0.434 -0.271,-1.062 0.158,-1.406 l 0,0 c 0.434,-0.344 1.061,-0.271 1.404,0.159 l 0,0 9.402,11.786 c 0.348,0.434 0.275,1.062 -0.156,1.406 l 0,0 c -0.186,0.146 -0.404,0.218 -0.621,0.218 l 0,0 c -0.294,0 -0.585,-0.129 -0.783,-0.377 l 0,0 z" />
			<polygon
   id="polygon29"
   points="107.541,61.923 109.004,60.754 110.471,59.585 112.455,65.075 " />
			<path
   
   id="path31"
   d="m 105.826,62.01 2.557,-2.039 1.465,-1.168 1.088,-0.869 3.469,9.58 -8.579,-5.504 0,0 z" />
			<path
   
   id="path33"
   d="M 111.102,64.984 103.776,55.8 c -0.346,-0.433 -0.271,-1.062 0.158,-1.406 l 0,0 c 0.43,-0.345 1.061,-0.271 1.404,0.16 l 0,0 7.324,9.182 c 0.346,0.432 0.275,1.061 -0.158,1.404 l 0,0 c -0.184,0.146 -0.402,0.219 -0.623,0.219 l 0,0 c -0.293,0.002 -0.584,-0.127 -0.779,-0.375 l 0,0 z" />
		</g>
	</g><g
   id="g_x5F_g">
		<g
   id="g36">
			<path
   
   id="path38"
   d="m 65.09,33.29 c 0.359,0 0.691,0.193 0.869,0.509 l 0,0 c 0.18,0.312 0.174,0.695 -0.012,1.005 l 0,0 -10.525,17.639 c -0.179,0.302 -0.507,0.488 -0.858,0.488 l 0,0 c -0.35,0 -0.68,-0.186 -0.858,-0.486 l 0,0 -10.55,-17.639 c -0.185,-0.312 -0.189,-0.694 -0.013,-1.007 l 0,0 c 0.178,-0.315 0.509,-0.509 0.871,-0.509 l 0,0 H 65.09 M 54.563,49.98 63.33,35.291 H 45.776 l 8.787,14.689 0,0 z" />
			<path
   
   id="path40"
   d="m 43.783,52.93 c -0.554,0 -1,-0.445 -1,-0.998 l 0,0 c 0,-0.554 0.446,-1 1,-1 l 0,0 h 21.049 c 0.555,0 1.002,0.446 1.002,1 l 0,0 c 0,0.553 -0.447,0.998 -1.002,0.998 l 0,0 H 43.783 l 0,0 z" />
			<path
   
   id="path42"
   d="M 53.565,33.533 V 0.999 c 0,-0.553 0.447,-0.999 1,-0.999 l 0,0 c 0.554,0 1,0.446 1,0.999 l 0,0 v 32.534 c 0,0.553 -0.446,1.001 -1,1.001 l 0,0 c -0.552,0 -1,-0.448 -1,-1.001 l 0,0 z" />
			<path
   
   id="path44"
   d="M 53.565,84.885 V 51.833 c 0,-0.554 0.448,-1.001 1,-1.001 l 0,0 c 0.553,0 1,0.447 1,1.001 l 0,0 v 33.052 c 0,0.551 -0.447,0.998 -1,0.998 l 0,0 c -0.551,0 -1,-0.447 -1,-0.998 l 0,0 z" />
			<polygon
   id="polygon46"
   points="71.307,56.934 72.773,55.764 74.238,54.595 76.221,60.087 " />
			<path
   
   id="path48"
   d="m 69.59,57.02 2.559,-2.037 1.465,-1.17 1.092,-0.871 3.461,9.58 -8.577,-5.502 0,0 z" />
			<path
   
   id="path50"
   d="M 74.869,59.995 65.463,48.209 c -0.344,-0.434 -0.271,-1.062 0.16,-1.406 l 0,0 c 0.434,-0.344 1.062,-0.271 1.404,0.159 l 0,0 9.404,11.786 c 0.344,0.434 0.271,1.062 -0.158,1.406 l 0,0 c -0.188,0.146 -0.404,0.218 -0.623,0.218 l 0,0 c -0.293,0 -0.584,-0.129 -0.781,-0.377 l 0,0 z" />
			<polygon
   id="polygon52"
   points="64.756,61.923 66.223,60.754 67.688,59.585 69.67,65.075 " />
			<path
   
   id="path54"
   d="m 63.041,62.01 2.559,-2.039 1.463,-1.168 1.09,-0.869 3.469,9.58 -8.581,-5.504 0,0 z" />
			<path
   
   id="path56"
   d="M 68.32,64.984 60.994,55.8 c -0.347,-0.433 -0.272,-1.062 0.156,-1.406 l 0,0 c 0.432,-0.345 1.062,-0.271 1.406,0.16 l 0,0 7.324,9.182 c 0.346,0.432 0.273,1.061 -0.156,1.404 l 0,0 c -0.188,0.146 -0.404,0.219 -0.623,0.219 l 0,0 c -0.292,0.002 -0.583,-0.127 -0.781,-0.375 l 0,0 z" />
		</g>
	</g><g
   id="g_x5F_r">
		<g
   id="g59">
			<path
   
   id="path61"
   d="m 22.309,33.29 c 0.36,0 0.691,0.193 0.869,0.509 l 0,0 c 0.179,0.312 0.175,0.695 -0.011,1.005 l 0,0 -10.525,17.639 c -0.179,0.302 -0.506,0.488 -0.858,0.488 l 0,0 c -0.35,0 -0.68,-0.186 -0.858,-0.486 l 0,0 L 0.375,34.805 C 0.19,34.493 0.186,34.111 0.363,33.798 l 0,0 C 0.54,33.483 0.871,33.289 1.234,33.289 l 0,0 21.075,10e-4 M 11.782,49.98 20.548,35.291 H 2.995 l 8.787,14.689 0,0 z" />
			<path
   
   id="path63"
   d="m 1,52.93 c -0.554,0 -1,-0.445 -1,-0.998 l 0,0 c 0,-0.554 0.447,-1 1,-1 l 0,0 h 21.05 c 0.552,0 1.001,0.446 1.001,1 l 0,0 c 0,0.553 -0.449,0.998 -1.001,0.998 l 0,0 H 1 l 0,0 z" />
			<path
   
   id="path65"
   d="M 10.783,34.051 V 22.033 c 0,-0.553 0.448,-0.999 1.001,-0.999 l 0,0 c 0.553,0 0.999,0.446 0.999,0.999 l 0,0 v 12.018 c 0,0.553 -0.446,1.001 -0.999,1.001 l 0,0 c -0.554,0 -1.001,-0.449 -1.001,-1.001 l 0,0 z" />
			<path
   
   id="path67"
   d="M 10.784,84.885 V 51.833 c 0,-0.554 0.448,-1.001 0.999,-1.001 l 0,0 c 0.553,0 1.001,0.447 1.001,1.001 l 0,0 v 33.052 c 0,0.551 -0.448,0.998 -1.001,0.998 l 0,0 c -0.552,0 -0.999,-0.447 -0.999,-0.998 l 0,0 z" />
			<polygon
   id="polygon69"
   points="28.524,56.934 29.991,55.764 31.457,54.595 33.438,60.087 " />
			<path
   
   id="path71"
   d="m 26.81,57.02 2.557,-2.037 1.465,-1.17 1.091,-0.871 3.461,9.58 -8.574,-5.502 0,0 z" />
			<path
   
   id="path73"
   d="M 32.085,59.995 22.68,48.209 c -0.344,-0.434 -0.271,-1.062 0.159,-1.406 l 0,0 c 0.433,-0.344 1.062,-0.271 1.405,0.159 l 0,0 9.404,11.786 c 0.345,0.434 0.274,1.062 -0.158,1.406 l 0,0 c -0.185,0.146 -0.404,0.218 -0.622,0.218 l 0,0 c -0.293,0 -0.584,-0.129 -0.783,-0.377 l 0,0 z" />
			<polygon
   id="polygon75"
   points="21.976,61.923 23.44,60.754 24.905,59.585 26.89,65.075 " />
			<path
   
   id="path77"
   d="m 20.261,62.01 2.556,-2.039 1.464,-1.168 1.089,-0.869 3.469,9.58 -8.578,-5.504 0,0 z" />
			<path
   
   id="path79"
   d="M 25.538,64.984 18.211,55.8 c -0.345,-0.433 -0.272,-1.062 0.158,-1.406 l 0,0 c 0.431,-0.345 1.062,-0.271 1.406,0.16 l 0,0 7.325,9.182 c 0.345,0.432 0.274,1.061 -0.158,1.404 l 0,0 c -0.185,0.146 -0.404,0.219 -0.623,0.219 l 0,0 c -0.294,0.002 -0.585,-0.127 -0.781,-0.375 l 0,0 z" />
		</g>
	</g><line
   style="fill:none;stroke:#000000;stroke-width:2;stroke-linecap:round;stroke-linejoin:round"
   id="line81"
   y2="22.051001"
   x2="97.066002"
   y1="22.051001"
   x1="11.785" /><text
   style="font-size:14px;font-family:DroidSans"
   id="text83"
   font-size="14"
   x="85.851448"
   y="65.76825">R</text>
<text
   style="font-size:14px;font-family:DroidSans"
   id="text85"
   font-size="14"
   x="42.932598"
   y="65.950203">G</text>
<text
   style="font-size:14px;font-family:DroidSans"
   id="text87"
   font-size="14"
   x="1.470392"
   y="66.132164">B</text>

</svg>